<svg xmlns="http://www.w3.org/2000/svg" xmlns:xlink="http://www.w3.org/1999/xlink" width="99.351" height="90.594" viewBox="0 0 99.351 90.594">
  <defs>
    <clipPath id="clip-path">
      <path id="Clip_2" data-name="Clip 2" d="M0,0H31.367V10.591H0Z" transform="translate(0.298 0.948)" fill="none"/>
    </clipPath>
    <clipPath id="clip-path-2">
      <path id="Clip_5" data-name="Clip 5" d="M0,0H98.238V21.7H0Z" transform="translate(0.152 0.495)" fill="none"/>
    </clipPath>
    <clipPath id="clip-path-3">
      <path id="Clip_8" data-name="Clip 8" d="M0,0H98.188V77.719H0Z" transform="translate(0 0.809)" fill="none"/>
    </clipPath>
    <clipPath id="clip-path-4">
      <path id="Clip_13" data-name="Clip 13" d="M0,0H25.56V80.725H0Z" transform="translate(0.237 0.752)" fill="none"/>
    </clipPath>
  </defs>
  <g id="_2020_Logo" data-name="2020 Logo" transform="translate(0 -0.752)">
    <g id="Group_3" data-name="Group 3" transform="translate(30.769 79.808)">
      <path id="Clip_2-2" data-name="Clip 2" d="M0,0H31.367V10.591H0Z" transform="translate(0.298 0.948)" fill="none"/>
      <g id="Group_3-2" data-name="Group 3" clip-path="url(#clip-path)">
        <path id="Fill_1" data-name="Fill 1" d="M20.919,10.591a9.093,9.093,0,0,1-1.642-.2,8.731,8.731,0,0,0-1.15-.16c-.06,0-.124,0-.19,0-.274,0-.553.021-.815.043l-.049,0c-.247.02-.48.04-.682.04-.4,0-.612-.078-.7-.254-.16-.33,1.061-1.266,1.952-1.95.145-.111.282-.216.4-.312,2.49-1.95,3.013-3.535,3.013-4.522,0-1.2-.594-1.631-1.15-1.631a1.122,1.122,0,0,0-.975.545,2.5,2.5,0,0,0,.117,1.912h-.076a2.441,2.441,0,0,1-1.931-.756,1.8,1.8,0,0,1,.035-1.723A2.763,2.763,0,0,1,19.8,0a3.465,3.465,0,0,1,2.612,1.065c1.144,1.433.421,3.917-.579,5a29.623,29.623,0,0,1-3.477,2.783c.009,0,.613.031,1.228.031.366,0,.667-.01.9-.031a19.365,19.365,0,0,0,2.55-.521c.028.191.219,1.84-1.237,2.174A3.908,3.908,0,0,1,20.919,10.591Zm-15.68,0a9.1,9.1,0,0,1-1.644-.2,8.731,8.731,0,0,0-1.149-.16c-.06,0-.124,0-.189,0-.273,0-.553.021-.815.043l-.048,0c-.247.02-.48.04-.683.04-.4,0-.613-.078-.7-.254C-.145,9.734,1.077,8.8,1.969,8.111c.143-.11.279-.214.4-.309C4.859,5.853,5.381,4.267,5.381,3.28c0-1.2-.593-1.631-1.148-1.631a1.122,1.122,0,0,0-.975.545,2.506,2.506,0,0,0,.115,1.912H3.3a2.438,2.438,0,0,1-1.928-.755A1.8,1.8,0,0,1,1.4,1.629,2.762,2.762,0,0,1,4.122,0,3.465,3.465,0,0,1,6.735,1.065c1.145,1.435.422,3.918-.58,5A29.726,29.726,0,0,1,2.679,8.845c.009,0,.612.031,1.227.031.365,0,.667-.01.9-.031a19.477,19.477,0,0,0,2.55-.521c.028.191.22,1.84-1.235,2.174A3.918,3.918,0,0,1,5.239,10.591Zm21.985-.078q-.069,0-.137,0a2.96,2.96,0,0,1-2.166-1.1A5.72,5.72,0,0,1,23.9,5.02,5.613,5.613,0,0,1,26.269.671,3.781,3.781,0,0,1,28.212,0c.677,0,1.089.32,1.146.635.115.644-.24.723-.776.842a3.974,3.974,0,0,0-.926.294,4.086,4.086,0,0,0-1.984,3.392,5.086,5.086,0,0,0,.721,3.608,1.29,1.29,0,0,0,.834.53,1.757,1.757,0,0,0,.183.01c1.1,0,2.045-1.116,2.363-2.778.239-1.263.34-2.534-.535-3.274a1.338,1.338,0,0,0-.847-.326.976.976,0,0,0-.8.4A1.1,1.1,0,0,0,27.513,4.6a.658.658,0,0,0,.637.346h.03c.165,0,.294,0,.329.215a.261.261,0,0,1-.052.219A.467.467,0,0,1,28.1,5.5a1.268,1.268,0,0,1-.983-.478,1.989,1.989,0,0,1,.1-2.328,1.8,1.8,0,0,1,1.481-.767,2.561,2.561,0,0,1,1.351.434A3.125,3.125,0,0,1,31.22,4.327a5.957,5.957,0,0,1-.108,3.037A4.176,4.176,0,0,1,27.224,10.513Zm-15.616,0q-.069,0-.137,0A2.962,2.962,0,0,1,9.3,9.408,5.717,5.717,0,0,1,8.283,5.02,5.618,5.618,0,0,1,10.652.671,3.781,3.781,0,0,1,12.595,0c.677,0,1.089.32,1.146.635.116.644-.239.722-.776.842a3.967,3.967,0,0,0-.926.294,4.091,4.091,0,0,0-1.984,3.392,5.094,5.094,0,0,0,.723,3.61,1.288,1.288,0,0,0,.832.529,1.757,1.757,0,0,0,.183.01c1.1,0,2.045-1.116,2.361-2.778.24-1.263.343-2.533-.532-3.274a1.341,1.341,0,0,0-.848-.326.976.976,0,0,0-.8.4A1.094,1.094,0,0,0,11.9,4.6a.659.659,0,0,0,.638.346h.03c.165,0,.294,0,.328.215a.26.26,0,0,1-.052.219.466.466,0,0,1-.359.122,1.271,1.271,0,0,1-.984-.478,1.991,1.991,0,0,1,.1-2.328,1.794,1.794,0,0,1,1.481-.767,2.563,2.563,0,0,1,1.352.434A3.128,3.128,0,0,1,15.6,4.327a5.957,5.957,0,0,1-.109,3.037A4.171,4.171,0,0,1,11.608,10.513Z" transform="translate(0.298 0.948)" fill="#fefefe"/>
      </g>
    </g>
    <g id="Group_6" data-name="Group 6" transform="translate(0.962 44.231)">
      <path id="Clip_5-2" data-name="Clip 5" d="M0,0H98.238V21.7H0Z" transform="translate(0.152 0.495)" fill="none"/>
      <g id="Group_6-2" data-name="Group 6" clip-path="url(#clip-path-2)">
        <path id="Fill_4" data-name="Fill 4" d="M76.706,21.7h0a25.929,25.929,0,0,1-3.827-.3c-2.373-.355-5.722-1.116-7.39-3.61-2.473-3.693-3.454-4.843-4.775-4.843-.045,0-.091,0-.137,0-.087,0-.174.008-.258.008-1.372,0-2.056-.653-2.166-1.065a.249.249,0,0,1,.084-.3c.328-.187,3.751-3.144,3.785-3.174l.9-.9.039.015c.659.263,1.377.561,1.864.765.409.172.751.283,1.025.373a1.989,1.989,0,0,1,1.22.728,5.352,5.352,0,0,1,.406.734,1.745,1.745,0,0,0,.658.887.23.23,0,0,0,.092.026.068.068,0,0,0,.057-.025c.055-.071.006-.276-.047-.493l-.006-.025c-.05-.2-.107-.434-.044-.514a.081.081,0,0,1,.067-.03.422.422,0,0,1,.195.076c.616.378,1.172.685,1.619.932a6.489,6.489,0,0,1,.818.487,5.325,5.325,0,0,1,.827,1.365c.18.363.366.739.576,1.087.045.075.075.11.092.11a.012.012,0,0,0,.009,0,1.014,1.014,0,0,0-.023-.363c-.015-.107-.031-.227-.043-.348-.034-.358-.011-.569.073-.662a.158.158,0,0,1,.122-.053.732.732,0,0,1,.4.209,36.067,36.067,0,0,0,3.52,2.254c1.244.742,2.419,1.441,3.018,1.906a14.9,14.9,0,0,0,2.673,1.194c.669.258,1.3.5,1.769.717,1.265-.446,2.565-.921,3.5-1.369a15.72,15.72,0,0,0,5.518-4.333l-.01,0a3.369,3.369,0,0,0-.377-.1,16.293,16.293,0,0,1-3.777-1.422c-1.655-.825-4.184-3.789-5.264-5.055-.161-.189-.288-.338-.375-.436-.679-.772-1.82-1.879-2.382-2.381a28.038,28.038,0,0,0-2.468-2.029.445.445,0,0,0-.332-.071h-.006a.615.615,0,0,1-.1.009.909.909,0,0,1-.322-.076c-.485-.191-1.552-.718-1.87-.9a7.8,7.8,0,0,0-.988-.411.022.022,0,0,1,0,.008,1.677,1.677,0,0,1-.185,1.126c-.548.6-.516.826-.305,1.245.322.642.62.642.818.642H75a.376.376,0,0,1,.329.106,7.347,7.347,0,0,0,.55.508,7.258,7.258,0,0,1,1.173,1.173,15.412,15.412,0,0,0,1.256,1.46c.559.612,1.192,1.3,1.675,1.9a4.088,4.088,0,0,1,.438,1.155,6.327,6.327,0,0,0,.454,1.261,16.687,16.687,0,0,0,1.381,1.617A16.575,16.575,0,0,1,84.3,14.97a.132.132,0,0,1,.01.122.113.113,0,0,1-.1.037,9.7,9.7,0,0,1-2.642-1.306,13.8,13.8,0,0,1-1.183-.86,2.844,2.844,0,0,0-1-.639.117.117,0,0,0-.12.092,4.61,4.61,0,0,0,.829,1.087,4.241,4.241,0,0,1,.749.973.019.019,0,0,1-.02.01.271.271,0,0,1-.1-.04A22.806,22.806,0,0,1,77.7,12.265a10.354,10.354,0,0,0-1.025-.781.087.087,0,0,0-.039-.011.045.045,0,0,0-.039.023,2.992,2.992,0,0,0,.37,1.432,3.419,3.419,0,0,0,.757,1.122c-.005,0-.076-.035-.193-.091-.641-.309-2.592-1.248-3.361-1.666-.372-.2-.882-.518-1.472-.882-1.176-.727-2.64-1.632-4.168-2.38-2.288-1.121-4-1.958-4.322-2.114l-.008,0c.011-.005,1.14-.526,1.612-.747C66.3,5.935,69.261,4.332,69.7,4a1.031,1.031,0,0,0,.389-.534.737.737,0,0,1,.161-.287,2.994,2.994,0,0,1,.537-.363,10.045,10.045,0,0,0,1.037-.684,3.282,3.282,0,0,0,.735-.805A2.022,2.022,0,0,1,73,.824,4.346,4.346,0,0,1,74.535,0a6.644,6.644,0,0,1,1.808.749c.138.073.282.157.421.238a2.406,2.406,0,0,0,.911.4.3.3,0,0,0,.073-.009l.061-.016a1.015,1.015,0,0,1,.246-.044.675.675,0,0,1,.414.2c.282.222,3.1,2.51,3.764,3.262.107.121.29.342.521.621,1.173,1.417,3.921,4.734,5.62,5.669A26.177,26.177,0,0,0,93.1,12.936c.322-.4.583-.762.794-1.051a3.519,3.519,0,0,1,.593-.721.911.911,0,0,1,.484-.123,2.173,2.173,0,0,1,.844.211c.1.063,2.489,1.555,2.421,1.795-.006.021-.032.032-.077.032l-.036,0a12.846,12.846,0,0,1-2.129-1.288,2.09,2.09,0,0,0-.946-.3.819.819,0,0,0-.572.207,3.527,3.527,0,0,0-.4.586,14.041,14.041,0,0,1-6.072,5.654l-.369.177a13.944,13.944,0,0,0-1.335.731l-.087.05a23.637,23.637,0,0,1-2.71,1.354A13.983,13.983,0,0,1,76.706,21.7ZM.346,21.144h0c-.23,0-.346-.054-.346-.162,0-.225,1.03-.941,2.026-1.633.884-.614,1.719-1.194,1.676-1.331-.006-.02-.032-.03-.077-.03-.31,0-.5.012-.658.019-.112,0-.2.009-.29.009a3.893,3.893,0,0,1-.441-.028.318.318,0,0,1-.306-.219c-.039-.179.08-.59,1.318-1.334a19.186,19.186,0,0,1,2.14-1.121A10.97,10.97,0,0,0,7.9,13.8a18.449,18.449,0,0,0,2.655-2.765c.367-.438.747-.89,1.124-1.307a12.857,12.857,0,0,0,.872-1.106,3.313,3.313,0,0,1,.535-.646.27.27,0,0,1,.159-.054.645.645,0,0,1,.257.082l.084.038a1.324,1.324,0,0,0,.56.121,2.206,2.206,0,0,0,.689-.126c1.184-.392,1.885-2.643,2.448-4.451a8.036,8.036,0,0,1,.854-2.17c.25-.289.445-.413.651-.413a1.2,1.2,0,0,1,.417.109l.1.04a2.125,2.125,0,0,0,.78.149c.064,0,.129,0,.2-.008a3.611,3.611,0,0,0,1.5-.579,2.212,2.212,0,0,1,.992-.4.656.656,0,0,1,.291.066,14.243,14.243,0,0,1,2.161,2.692A23.446,23.446,0,0,0,26.766,5.1a1.7,1.7,0,0,1,.395,1.843c-.023.1-.044.186-.061.275-.109.591,2.783,2.514,4.871,3.691.126.071.285.171.487.3.382.238.9.564,1.578.931a1.263,1.263,0,0,0,.828,1.219,1.547,1.547,0,0,0-.175,1.463A18.107,18.107,0,0,0,34.1,17c-3.161-.489-7.213-1.831-7.976-2.972-.313-.47,1.309-1.579,2.383-2.312a4.212,4.212,0,0,0,.924-.707A.017.017,0,0,0,29.422,11a12.15,12.15,0,0,0-2.649-1.7c-.675-.342-1.12-.568-1.067-.866a3.32,3.32,0,0,1,.278-.685c.328-.685.778-1.622.224-2.2a18.4,18.4,0,0,1-1.373-1.887,10.762,10.762,0,0,0-1.827-2.346.127.127,0,0,0-.057-.015c-.178,0-.357.5-1.023,2.365l-.2.566c-.076.212-.174.434-.278.669a3,3,0,0,0-.419,1.581c.374,1.55,2.369,2.887,3.965,3.561.11.046.13.072.128.085s-.049.022-.087.022A5.194,5.194,0,0,1,23.1,9.527,11.8,11.8,0,0,1,21.248,8.2c-.389-.324-.67-.557-.819-.557a.1.1,0,0,0-.089.048A34.072,34.072,0,0,1,12.2,16.575c-5.814,4.272-7.742,4.419-8.565,4.482l-.055,0c-.058,0-.09-.01-.095-.031-.026-.1.631-.455,1.211-.766l.031-.017c.634-.34,1.233-.661,1.21-.754,0-.018-.031-.026-.08-.026a.766.766,0,0,0-.089.006,3.521,3.521,0,0,0-.79.273c-.37.153-.878.362-1.672.648A12.609,12.609,0,0,1,.346,21.144Zm64.264-1.512a2.563,2.563,0,0,1-.466-.055c-1.556-.3-3.84-2.434-4.095-2.677-.575-.547-5.033-3.39-5.078-3.418a22.57,22.57,0,0,0-5.539,1.654c-2.043,1-4.318,2.034-4.341,2.044,0-.008-.168-.583-.319-1.015-.259-.743-.437-1.5-.438-1.508.1-.039,10.988-4.324,12.411-4.989a28.433,28.433,0,0,0,3.9-2.31A12.1,12.1,0,0,1,61.9,6.57a1.325,1.325,0,0,1,.574-.137,1.118,1.118,0,0,1,.594.164,7.733,7.733,0,0,0-1.078.569C61.622,7.428,60.224,8.559,59.72,9s-3.176,2.806-3.2,2.83c.018.021,2.253,2.742,3.89,4.317.821.789,1.08.827,1.51.89.082.012.166.024.263.043a3.29,3.29,0,0,0,.613.066,1.129,1.129,0,0,0,.283-.026l1.517,1.864c.016.014.393.352.325.534C64.889,19.594,64.785,19.633,64.611,19.633Z" transform="translate(0.152 0.495)" fill="#fefefe"/>
      </g>
    </g>
    <g id="Group_9" data-name="Group 9" transform="translate(0 6.731)">
      <path id="Clip_8-2" data-name="Clip 8" d="M0,0H98.188V77.719H0Z" transform="translate(0 0.809)" fill="none"/>
      <g id="Group_9-2" data-name="Group 9" clip-path="url(#clip-path-3)">
        <path id="Fill_7" data-name="Fill 7" d="M73.607,77.72h0c-.091,0-2.237-.13-2.623-1.7a12.814,12.814,0,0,1,.377-4.806c.133-.709.27-1.441.392-2.216a87.065,87.065,0,0,0,.957-8.742.956.956,0,0,1,.257-.032,2,2,0,0,1,1.426.732c.871.907.469,2.622.426,2.793a4.808,4.808,0,0,1,3.676-2.8,3.394,3.394,0,0,1,.492-.036,3.287,3.287,0,0,1,3.323,2.875,6.106,6.106,0,0,1-.645,3.547,6.843,6.843,0,0,1-2.516,2.853,4.168,4.168,0,0,1-2.1.493,6.008,6.008,0,0,1-1.434-.17c-.373-.1-.614-.217-.614-.309s.253-.226.635-.43a6.929,6.929,0,0,0,3.2-2.861c.66-1.4.819-2.427.471-3.042a1.567,1.567,0,0,0-1.3-.694,1.411,1.411,0,0,0-.143-.007c-1.358,0-2.625,1.991-3.39,5.325a67.951,67.951,0,0,0-.865,9.221ZM30.354,71.6a1.8,1.8,0,0,1-1.085-.672,3.777,3.777,0,0,1-.86-3.016c.078-.728.259-1.6.469-2.615.173-.837.369-1.785.525-2.755a8.958,8.958,0,0,0-2.042.453.686.686,0,0,1-.259-.638,1.541,1.541,0,0,1,1.023-.953,2.923,2.923,0,0,1,1.024-.124c.138,0,.285,0,.423.005a16.5,16.5,0,0,0,.078-3.429,1.136,1.136,0,0,1,.4-.063,2.025,2.025,0,0,1,2.1,1.961,7.428,7.428,0,0,1-.206,1.45,7.835,7.835,0,0,0,1.586-.363.687.687,0,0,1,.2.714,1.649,1.649,0,0,1-1.375.978,5.221,5.221,0,0,1-.751.1l-.026.105A27.143,27.143,0,0,0,30.5,71.553.2.2,0,0,1,30.354,71.6Zm66.536-.149h0a2.878,2.878,0,0,1-1.188-.367,2.153,2.153,0,0,1-.99-1.324c-.355-1.258-.051-2.971.369-5.341.142-.8.3-1.714.455-2.7a40.864,40.864,0,0,0,.708-7.537l.012,0a2.552,2.552,0,0,1,.3-.017,1.913,1.913,0,0,1,.986.24,1.392,1.392,0,0,1,.465.735,3.412,3.412,0,0,1,.118.679c.005.048.01.1.016.146a12.062,12.062,0,0,1,.012,2.047,33.035,33.035,0,0,1-.626,5.064c-.19,1.094-.443,2.775-.549,3.883a19.954,19.954,0,0,0-.087,4.492Zm-36.96-.007a3.836,3.836,0,0,1-2.84-1.008,11.739,11.739,0,0,1-1.643-2.574c-.21-.432-.415-.843-.613-1.239-.527-1.057-1.025-2.054-1.625-3.447s-1.154-2.574-1.769-3.758c-.058.774-.173,1.634-.371,2.789-.175,1.006-.626,3.905-.677,4.632a30.856,30.856,0,0,0-.106,4.269l-.013,0a3.351,3.351,0,0,1-.361.019A2.333,2.333,0,0,1,47.463,69.5c-.324-1.155-.071-2.522.311-4.591.148-.8.315-1.7.472-2.73.7-4.591.862-7.006.895-7.636-.011-.031-.018-.057-.019-.059l.022-.011v-.021l.039,0a2.224,2.224,0,0,1,.939-.209,2.462,2.462,0,0,1,1.914,1.009,34.77,34.77,0,0,1,3.947,6.983c.309.762.969,1.963,1.405,2.758.123.224.229.416.3.56l.043.081.061.115c.067-.427.143-.875.222-1.349.118-.7.239-1.423.361-2.223.8-5.242.977-7.39.978-7.411h.009a2.279,2.279,0,0,1,2.286,2.091,24.829,24.829,0,0,1-.57,6.608c-.038.218-.084.474-.133.75-.189,1.052-.424,2.362-.464,2.939a19.033,19.033,0,0,0,.014,4.269l-.016,0c-.045,0-.182.017-.371.017C60.06,71.443,60,71.444,59.929,71.444Zm6.4-.108a4.454,4.454,0,0,1-4.058-3.019,6.085,6.085,0,0,1,.187-4.023A5.955,5.955,0,0,1,65.1,61.313a5.768,5.768,0,0,1,2.78-.734,2.9,2.9,0,0,1,2.936,1.637c.719,1.842-.8,3.221-2.455,3.9a6.9,6.9,0,0,1-2.512.42c-.377,0-.629-.024-.632-.024l.116-.791a7.447,7.447,0,0,0,1.419-.225,2.663,2.663,0,0,0,1.9-2.656c-.051-.545-.342-.845-.821-.845a2.482,2.482,0,0,0-1.573.79,6.727,6.727,0,0,0-1.613,4.235c-.061,1.35.539,2.754,1.8,2.824.067,0,.135.006.2.006a3.825,3.825,0,0,0,2.907-1.53.531.531,0,0,1,.385-.224c.288,0,.476.388.478.392-.011.054-.286,1.319-2.4,2.431A3.576,3.576,0,0,1,66.332,71.336Zm27.024-.162h0a4.117,4.117,0,0,1-2.031-.564c-.764-.536-.523-2.041-.5-2.175a4.356,4.356,0,0,1-1.587,1.948,4.754,4.754,0,0,1-2.453.742,3.391,3.391,0,0,1-2.614-1.193,3.991,3.991,0,0,1-.783-3.187,6.3,6.3,0,0,1,2.433-4.326,7.2,7.2,0,0,1,3.573-1.277c.044,0,.086,0,.127,0,.754,0,.786.457.786.461a7.387,7.387,0,0,0-2.53,1.949A4.836,4.836,0,0,0,86.3,67.539a1.411,1.411,0,0,0,1.281,1.443,1.564,1.564,0,0,0,.729-.2c1.384-.733,1.643-1.422,2.334-3.264l.082-.219a11.792,11.792,0,0,0,.5-4.748l.012,0a4.006,4.006,0,0,1,.52-.034,2.2,2.2,0,0,1,1.877.771c.39.574.135,1.924-.161,3.487-.171.9-.347,1.837-.43,2.756a7.579,7.579,0,0,0,.314,3.644ZM17.87,71.165h0c-.356,0-.7-.021-1.043-.041l-.07,0a3.084,3.084,0,0,1-2.437-1.558,1.413,1.413,0,0,1-.06-1.416,1.587,1.587,0,0,1,1.4-.855,1.623,1.623,0,0,1,.533.086,3.381,3.381,0,0,0-.062,1.861.633.633,0,0,0,.367.344,2.545,2.545,0,0,0,.821.136,1.679,1.679,0,0,0,1.349-.526.685.685,0,0,0,.1-.635,5.22,5.22,0,0,0-2.043-2.233,6,6,0,0,1-1.293-1.154,2.562,2.562,0,0,1-.312-2.3,2.934,2.934,0,0,1,2.2-1.752,4.256,4.256,0,0,1,1.115-.148,3.688,3.688,0,0,1,2.757,1.12,1.371,1.371,0,0,1,.357,1.131A1.571,1.571,0,0,1,19.8,64.509a3.015,3.015,0,0,1-.6-.058,1.7,1.7,0,0,0,.661-.954.665.665,0,0,0-.2-.533,1.617,1.617,0,0,0-1.189-.549,1.9,1.9,0,0,0-.8.19,1.038,1.038,0,0,0-.573.78,1.512,1.512,0,0,0,.471,1.323,5.821,5.821,0,0,0,.894.633c1.253.792,3.147,1.99,2.52,3.932C20.447,70.95,19.038,71.165,17.87,71.165ZM3.892,71.046h0a5.419,5.419,0,0,1-1.258-.19c-.006-.04-.606-4.363-1.206-6.579A23.092,23.092,0,0,0,0,60.874a2.987,2.987,0,0,1,1.761-.84,1.411,1.411,0,0,1,1.026.446c1.175,1.184,1.575,7.727,1.579,7.793.013-.023,1.845-3.154,2.379-4.428a23.184,23.184,0,0,0,.968-2.923h.005a2.642,2.642,0,0,1,1.615.958,1.543,1.543,0,0,1,.148,1.282c-.633,2.325-4.363,7.292-4.842,7.693A1.165,1.165,0,0,1,3.892,71.046Zm21.035-.069a2.135,2.135,0,0,1-1.279-.782,3.659,3.659,0,0,1-.862-2.908,16.1,16.1,0,0,1,.373-2.068,9.854,9.854,0,0,0,.288-3.676,2.107,2.107,0,0,1,.717-.107A2.15,2.15,0,0,1,25.739,62a1.289,1.289,0,0,1,.308,1.031,12.891,12.891,0,0,1-.353,1.751,17.464,17.464,0,0,0-.616,6.148A.209.209,0,0,1,24.927,70.976Zm-12.659-.082a2.134,2.134,0,0,1-1.278-.781,3.661,3.661,0,0,1-.863-2.908,16.047,16.047,0,0,1,.374-2.071,9.845,9.845,0,0,0,.288-3.675,2.107,2.107,0,0,1,.715-.106,2.153,2.153,0,0,1,1.577.564,1.288,1.288,0,0,1,.307,1.032,12.885,12.885,0,0,1-.353,1.751,17.434,17.434,0,0,0-.615,6.147A.211.211,0,0,1,12.267,70.895ZM25.011,60.067a2.5,2.5,0,0,1-.95-.16.759.759,0,0,1-.341-.838,1.233,1.233,0,0,1,.855-1.091,2.377,2.377,0,0,1,.45-.045,1.264,1.264,0,0,1,1.363,1.307.588.588,0,0,1-.157.461A1.7,1.7,0,0,1,25.011,60.067Zm-12.582,0a2.5,2.5,0,0,1-.951-.16.758.758,0,0,1-.34-.838,1.234,1.234,0,0,1,.855-1.092,2.373,2.373,0,0,1,.45-.045,1.265,1.265,0,0,1,1.363,1.307.589.589,0,0,1-.157.461A1.705,1.705,0,0,1,12.429,60.067Zm29.75-3.013h0a2.007,2.007,0,0,1-1.423-.729,4.658,4.658,0,0,1-1.089-3.439,9.908,9.908,0,0,1,1.366-4.1,2.861,2.861,0,0,0,1.712.591,2.812,2.812,0,0,0,1.009-.192A9.753,9.753,0,0,0,46.32,47.7c2.469-1.845,3.79-3.176,3.235-4.522a1.085,1.085,0,0,0-1.1-.653,3.534,3.534,0,0,0-1.447.383,14.891,14.891,0,0,0-2.647,1.621c-.263.208-.487.4-.685.57-.381.327-.633.543-.785.543a.122.122,0,0,1-.1-.052.143.143,0,0,1-.013-.109,8.108,8.108,0,0,1,2.963-3.194,5.266,5.266,0,0,1,2.692-1.109,1.768,1.768,0,0,1,.223.014,2.39,2.39,0,0,1,1.733.961,2.293,2.293,0,0,1,.239,1.91,4.34,4.34,0,0,1-2.05,2.486,7.077,7.077,0,0,0-2.986,3.722,5.463,5.463,0,0,0,.357,3.2c.208.663.373,1.188.232,1.4l-.072.11a4.342,4.342,0,0,1-3.853,2.074Zm-5.663-6.678h0a.765.765,0,0,1-.488-.326,1.309,1.309,0,0,1-.045-1.089,4.245,4.245,0,0,1,1.283-1.883l.412-.434c.43-.452.74-.779.758-.784l0,.008c0-.006.006-.006.007-.006.035.041-.188,1.147-.424,2.318l-.073.361c-.033.159-.13.173-.252.191a.53.53,0,0,0-.434.264,14.729,14.729,0,0,0-.741,1.378ZM52.8,41.834h0c-.2,0-.327-.04-.374-.118a.849.849,0,0,0,.058-.655.62.62,0,0,0-.407-.328,11.758,11.758,0,0,1-.224-5.072,2.151,2.151,0,0,1,.678-.094,3.8,3.8,0,0,1,1.557.362.61.61,0,0,0,.255.055,1.2,1.2,0,0,0,.426-.1l.016-.006a1.072,1.072,0,0,1,.374-.1c.2,0,.364.136.519.429a8.449,8.449,0,0,1,.512,4.169C56.029,40.97,53.692,41.834,52.8,41.834Zm9.218-31.127h0c-.072-.039-1.779-.951-2.749-1.428a49.138,49.138,0,0,0-5.845-2.165,66.17,66.17,0,0,0-8.94-1.63c-.669-.092-1.246-.172-1.711-.241C39.143,4.7,33.939,3.688,32.467,3.317a.129.129,0,0,1-.1-.077c-.05-.135.145-.411.351-.7A3.164,3.164,0,0,0,33.15,1.8,2.672,2.672,0,0,1,34.993.07,3.74,3.74,0,0,1,35.784,0a23.963,23.963,0,0,1,3.388.392c.72.115,1.4.224,1.949.278,1.767.17,10.67,2.243,12.094,2.689.242.076.575.169.962.277,1.9.531,5.434,1.521,6.921,2.986,1.063,1.051.927,3.96.921,4.084Z" transform="translate(-0.001 0.809)" fill="#fefefe"/>
      </g>
    </g>
    <path id="Fill_10" data-name="Fill 10" d="M39.8,12.307c-1.024-.568-.555-.52-.555-.52s3.845.938,3.118.1c-.195-.222-1.733-.5-2.478-.921-.874-.5-.865-.836-.865-.836s1.927.665,2.1.109c.056-.182-.6-.373-1.606-.929a7.353,7.353,0,0,1-.751-.486.535.535,0,0,1-.622.471c-.873-.02-2.144-2.019-2.144-2.019s.485,1.5-.467.961a4.657,4.657,0,0,1-1.848-2.045s.245.871-.608.633c-.528-.15-1.8-1.759-1.8-1.759s.4.744-.911.439a5.327,5.327,0,0,1-1.707-1.261,1.684,1.684,0,0,1-1.694.619c-1.355-.139-.774-.972-.774-.972a5.14,5.14,0,0,1-2.95.68c-1.6-.17-.369-1.393-.369-1.393a15.228,15.228,0,0,1-2.747,1.173c-1.7.511-1.244-.773-1.244-.773a3.054,3.054,0,0,1-2.2.553c-1.158-.24-.188-.826-.188-.826s-2.347,1.153-3.072.868.492-1.053.492-1.053a3.19,3.19,0,0,1-2.227.273C10.854,3.022,13,1.831,13,1.831s-2.749.783-3.642.25c-.638-.38,1.256-.806,1.256-.806A10.232,10.232,0,0,1,6.72,1.148C6.122.912,6.606.44,6.606.44s-1.392.1-2.765.055C1.335.411.137-.414,0,.268-.121.891,4.519,1.8,4.519,1.8a12.511,12.511,0,0,1-2.106.228c-1.121.013-2.1-.288-2.152.1-.1.748,4.909,1.693,4.909,1.693s-4.406.033-3.321.9,5.52.516,5.52.516-3.181,1.1-1.485,1.6a17.9,17.9,0,0,0,5.2.078S8.4,7.927,9.624,8.414c1.394.555,5.612-1.031,5.612-1.031S12.245,9.165,13.67,9.535a8.345,8.345,0,0,0,3.615-.3s-.884,1.2-.062,1.486A3.022,3.022,0,0,0,20.5,9.888l.846-4.325,2.116.492-1.019,5.153c.193.855.691,1.657,1.221,1.78.909.212.87-1.759.87-1.759s1.9,2.839,3.3,3.079c1.415.243-.733-2.867-.733-2.867s3.191,3.67,4.734,3.5c.8-.086.1-1.422.1-1.422s4.779,3.064,3.9,1.33a3.542,3.542,0,0,0-1.159-1.481c-1.009-.68-.284-.581-.284-.581s4.133,2.758,6.008,2.478c.839-.126-3.61-2.568-3.61-2.568s3.911,1.7,5.914,1.16-1.882-.988-2.906-1.554" transform="translate(24.038 10.577)" fill="#fefefe"/>
    <g id="Group_14" data-name="Group 14" transform="translate(34.615)">
      <path id="Clip_13-2" data-name="Clip 13" d="M0,0H25.56V80.725H0Z" transform="translate(0.237 0.752)" fill="none"/>
      <g id="Group_14-2" data-name="Group 14" clip-path="url(#clip-path-4)">
        <path id="Fill_12" data-name="Fill 12" d="M11.842,80.726c-.834,0-4.632-4.268-6.3-8.158A36.43,36.43,0,0,1,3.97,68.083c-.192-.663-.3-1.028-.381-1.028-.033,0-.062.056-.091.176-.427,1.75.053,4.969.477,7.808.351,2.352.654,4.383.293,4.8a.215.215,0,0,1-.168.08C2.672,79.921.327,74.045.032,68.56a24.369,24.369,0,0,1,.584-6.543c.132-.645.677-2.407.682-2.425,0,.011.344,1.212,3.047,2.581a3.733,3.733,0,0,0,1.665,2.237,2.742,2.742,0,0,0,1.227.3,3.008,3.008,0,0,0,.731-.1l.151-.039a1.342,1.342,0,0,1,.286-.058.112.112,0,0,1,.087.029.158.158,0,0,1,.024.123C7.977,70.08,10,74.783,11.2,77.593c.734,1.711,1.219,2.841.717,3.115A.159.159,0,0,1,11.842,80.726ZM3.256,58.6a.646.646,0,0,1-.413-.16.826.826,0,0,1-.349-.534.409.409,0,0,1,.077-.284L3.7,51.729a3.647,3.647,0,0,1-.721-2.111,2.66,2.66,0,0,1,1.658-2.771l.424-2.219a2.645,2.645,0,0,1-.509-1.876c.211-1.388,2.255-7.269,2.276-7.328l3.664-19.116,1.4.31L7.065,41.778c0,.014,0,.028.007.043s0,.029.007.043a3.752,3.752,0,0,0,.669,1.551c.051.079.1.157.151.235a14.993,14.993,0,0,0,4.116,3.7l.286.2a2.957,2.957,0,0,1-.117-.8,4.213,4.213,0,0,1,.534-1.9,5.83,5.83,0,0,1,3.178-1.716.665.665,0,0,1,.11.008,11.12,11.12,0,0,0,.389,4.891c.258.116.4.246.426.386a.344.344,0,0,1-.085.274.646.646,0,0,1-.5.19l-.061,0c-.373-.018-1.222-.1-1.258-.107,0,0-.34-.284-.415-.344a2.237,2.237,0,0,0-1.39-.4,3.86,3.86,0,0,0-.422.023l-.183.035a3.863,3.863,0,0,0-1.276.476A9.458,9.458,0,0,0,8.332,50.8c-.954,1.051-1.275,1.862-1.169,2.172a.2.2,0,0,0,.163.144.836.836,0,0,0,.145.013c.441,0,.843-.348,1.452-.874.167-.145.356-.308.562-.478a7.434,7.434,0,0,1,3.572-1.756,1.122,1.122,0,0,1,.249.026.843.843,0,0,1,.613.544,1.5,1.5,0,0,1-.335,1.389,14.211,14.211,0,0,1-3.017,2.747c-.129.095-.25.184-.363.268a5.978,5.978,0,0,1-2.887,1.182,1.134,1.134,0,0,1-.376-.056,4.487,4.487,0,0,1-1.274-.684A6.219,6.219,0,0,0,4.415,58.2a2.065,2.065,0,0,1-.447-.244l-.056.29A.968.968,0,0,1,3.256,58.6ZM6.213,46.227l-.824,4.3a.96.96,0,0,0,.564.372.107.107,0,0,0,.066-.019c.454-.352.812-.652,1.127-.916a16.045,16.045,0,0,1,1.4-1.086A.094.094,0,0,0,8.59,48.8c.012-.162-.344-.487-.794-.9A10.78,10.78,0,0,1,6.213,46.227ZM25.523,12.9a1.479,1.479,0,0,1-.432-.255,14.959,14.959,0,0,0-4.855-2.233l-.924-.255c-2.65-.734-7.579-2.1-9.929-2.494A53.831,53.831,0,0,0,.936,6.627c-.2,0-.395,0-.6.01-.022,0-.032,0-.034-.011A16.4,16.4,0,0,1,3.2,5.192a13.433,13.433,0,0,1,4.937-.807c.141-.008.294-.012.453-.012a19.576,19.576,0,0,1,3.331.354,3.951,3.951,0,0,1,.469-.889,2.067,2.067,0,0,1,1.246-.675h0c-.176-.077-.74-.368-.6-.881a1.053,1.053,0,0,1,1.143-.843,1.165,1.165,0,0,0,.258-.029C14.5.579,14.891,0,15.4,0a.694.694,0,0,1,.181.025A.781.781,0,0,1,16.1.438a1.622,1.622,0,0,1-.153,1.309,1.186,1.186,0,0,1,.72,1.451.583.583,0,0,1-.626.529,1.026,1.026,0,0,1-.263-.035l.01.008a3.849,3.849,0,0,1,.829.909,1.787,1.787,0,0,1,0,1.326,30.793,30.793,0,0,1,3.542,1.4c2.1,1,5.063,4.268,5.382,5.408.023.081.026.128.011.148A.032.032,0,0,1,25.523,12.9Z" transform="translate(0.237 0.752)" fill="#fefefe"/>
      </g>
    </g>
  </g>
</svg>
