<?xml version="1.0" standalone="no"?><svg xmlns="http://www.w3.org/2000/svg" viewBox="0 0 1440 320"><path fill="#dddada" fill-opacity="1" d="M0,224L12.6,213.3C25.3,203,51,181,76,186.7C101.1,192,126,224,152,218.7C176.8,213,202,171,227,133.3C252.6,96,278,64,303,53.3C328.4,43,354,53,379,74.7C404.2,96,429,128,455,160C480,192,505,224,531,250.7C555.8,277,581,299,606,288C631.6,277,657,235,682,224C707.4,213,733,235,758,224C783.2,213,808,171,834,165.3C858.9,160,884,192,909,202.7C934.7,213,960,203,985,202.7C1010.5,203,1036,213,1061,224C1086.3,235,1112,245,1137,245.3C1162.1,245,1187,235,1213,218.7C1237.9,203,1263,181,1288,176C1313.7,171,1339,181,1364,160C1389.5,139,1415,85,1427,58.7L1440,32L1440,320L1427.4,320C1414.7,320,1389,320,1364,320C1338.9,320,1314,320,1288,320C1263.2,320,1238,320,1213,320C1187.4,320,1162,320,1137,320C1111.6,320,1086,320,1061,320C1035.8,320,1011,320,985,320C960,320,935,320,909,320C884.2,320,859,320,834,320C808.4,320,783,320,758,320C732.6,320,707,320,682,320C656.8,320,632,320,606,320C581.1,320,556,320,531,320C505.3,320,480,320,455,320C429.5,320,404,320,379,320C353.7,320,328,320,303,320C277.9,320,253,320,227,320C202.1,320,177,320,152,320C126.3,320,101,320,76,320C50.5,320,25,320,13,320L0,320Z"></path></svg>