<?xml version="1.0" standalone="no"?><svg xmlns="http://www.w3.org/2000/svg" viewBox="0 0 1440 320"><path fill="#e8dfdf" fill-opacity="1" d="M0,224L17.1,234.7C34.3,245,69,267,103,282.7C137.1,299,171,309,206,309.3C240,309,274,299,309,272C342.9,245,377,203,411,197.3C445.7,192,480,224,514,218.7C548.6,213,583,171,617,128C651.4,85,686,43,720,21.3C754.3,0,789,0,823,32C857.1,64,891,128,926,165.3C960,203,994,213,1029,229.3C1062.9,245,1097,267,1131,240C1165.7,213,1200,139,1234,101.3C1268.6,64,1303,64,1337,58.7C1371.4,53,1406,43,1423,37.3L1440,32L1440,0L1422.9,0C1405.7,0,1371,0,1337,0C1302.9,0,1269,0,1234,0C1200,0,1166,0,1131,0C1097.1,0,1063,0,1029,0C994.3,0,960,0,926,0C891.4,0,857,0,823,0C788.6,0,754,0,720,0C685.7,0,651,0,617,0C582.9,0,549,0,514,0C480,0,446,0,411,0C377.1,0,343,0,309,0C274.3,0,240,0,206,0C171.4,0,137,0,103,0C68.6,0,34,0,17,0L0,0Z"></path></svg>